<svg xmlns:xlink="http://www.w3.org/1999/xlink" xmlns="http://www.w3.org/2000/svg" viewBox="0 0 320 92" height="92" width="320" style="width: 320px; height: 92px; position: absolute; top: 50%; left: 50%; transform: translate(-50%, -50%) scale(0.391875); z-index: 0; cursor: pointer;"><defs id="SvgjsDefs1742"></defs><g id="SvgjsG1743" featurekey="symbolFeature-0" transform="matrix(2,0,0,2,-14,-18)" fill="#111111"><metadata xmlns="http://www.w3.org/2000/svg" fill="#111111"><sfw xmlns="http://ns.adobe.com/SaveForWeb/1.0/" fill="#111111"><slices fill="#111111"><slicesourcebounds y="-8160" x="-8165" width="16389" height="16384" bottomleftorigin="true" fill="#111111"></slicesourcebounds><optimizationsettings fill="#111111"><targetsettings fileformat="PNG24Format" targetsettingsid="0" fill="#111111"><png24format transparency="true" mattecolor="" nomattecolor="false" interlaced="false" filtered="false" fill="#111111"></png24format></targetsettings></optimizationsettings></slices></sfw></metadata><g xmlns="http://www.w3.org/2000/svg" fill="#111111"><path d="M56,9H8c-0.552,0-1,0.448-1,1v44c0,0.553,0.448,1,1,1h48c0.553,0,1-0.447,1-1V10C57,9.448,56.553,9,56,9z M30.707,32.707   l-10,10C20.512,42.902,20.256,43,20,43s-0.512-0.098-0.707-0.293c-0.391-0.391-0.391-1.023,0-1.414L28.586,32l-9.293-9.293   c-0.391-0.391-0.391-1.023,0-1.414s1.023-0.391,1.414,0l10,10C31.098,31.684,31.098,32.316,30.707,32.707z M44,43H34   c-0.553,0-1-0.447-1-1s0.447-1,1-1h10c0.553,0,1,0.447,1,1S44.553,43,44,43z" fill="#111111"></path></g></g><g id="SvgjsG1744" featurekey="nameFeature-0" transform="matrix(1.0264832072274843,0,0,1.0264832072274843,118.19338932033627,15.928561163784106)" fill="#111111"><path d="M28.36 31.92 c0 0.92 -0.12 3.88 -2.2 5.88 c-0.76 0.76 -1.6 1.12 -1.96 1.28 c-1.76 0.8 -3.32 0.92 -5.16 0.92 l-17.28 0 l0 -28.24 l16.72 0 c0.8 0 1.6 0.04 2.4 0.16 c1.68 0.24 3.68 0.96 4.88 2.2 c0.24 0.28 0.72 0.84 1.12 1.68 c0.48 0.96 0.72 2.04 0.72 3.12 c0 0.92 -0.28 3.6 -2.56 5.4 c-0.44 0.32 -0.88 0.6 -1.88 1.04 l1.2 0.36 c0.88 0.28 1.56 0.76 2.24 1.44 c1.72 1.8 1.76 3.84 1.76 4.76 z M18.52 20.12 c0 -0.72 -0.2 -1.16 -0.36 -1.4 c-0.68 -1.08 -2.04 -1 -2.36 -1 l-5.12 0 l0 4.76 l4.92 0 c0.96 0 2.04 -0.08 2.6 -1.04 c0.32 -0.48 0.32 -1.08 0.32 -1.32 z M19.28 31.2 c0 -0.32 -0.04 -0.92 -0.4 -1.52 c-0.8 -1.32 -2.48 -1.28 -2.84 -1.28 l-5.4 0 l0 5.52 l5.6 0 c1 0 1.92 -0.2 2.56 -1.12 c0.44 -0.64 0.48 -1.28 0.48 -1.6 z M39.08 40 l-8.28 0 l0 -28.24 l8.28 0 l0 28.24 z M65.80000000000001 29.68 c0 1.12 -0.2 4.68 -2.68 7.44 c-1.44 1.6 -4.52 3.68 -9.68 3.68 c-1.2 0 -4.92 -0.04 -7.96 -2.44 c-1.52 -1.2 -3.84 -3.84 -3.84 -8.56 c0 -2.88 0.88 -5.72 2.84 -7.84 c1.4 -1.52 4.36 -3.6 9.4 -3.56 c1.08 0 5.36 0.12 8.44 2.8 c2.32 2.04 3.48 5.4 3.48 8.48 z M57.480000000000004 29.48 c0 -3.12 -1 -4.56 -2.48 -5.08 c-0.6 -0.2 -1.12 -0.2 -1.36 -0.2 c-1.44 0.04 -2.24 0.76 -2.6 1.16 c-0.64 0.68 -1.2 2.08 -1.2 4.2 c0 2.04 0.52 3.44 1.04 4.16 c0.32 0.44 0.76 0.8 1.24 1 c0.24 0.12 0.84 0.28 1.56 0.28 c0.96 0 1.84 -0.28 2.48 -0.92 c0.72 -0.72 1.32 -2.28 1.32 -4.6 z M89.96000000000001 38.84 c-0.04 0.4 -0.04 0.76 -0.08 1.16 c-0.04 0.92 -0.2 3.52 -2.4 5.36 c-2.36 2 -6.4 2.44 -9.32 2.44 c-1.12 0 -2.24 -0.04 -3.36 -0.16 c-2.28 -0.28 -4.92 -0.84 -6.32 -2.96 c-0.88 -1.36 -0.96 -2.76 -1 -4.4 l7.48 0 c0 0.24 -0.08 1.32 0.64 1.96 c0.4 0.36 1.32 0.72 2.6 0.72 c0.2 0 1.88 -0.04 2.84 -0.76 c1.12 -0.84 1 -2.48 1 -2.76 c0 -0.88 0.04 -1.72 0.04 -2.56 c-0.36 0.56 -0.4 0.64 -0.72 0.88 c-1.24 1 -3.12 1.24 -4.64 1.24 c-2.2 0 -4.08 -0.4 -5.84 -1.76 c-1.52 -1.16 -3.48 -3.6 -3.48 -8.2 c0 -1 0.08 -4.96 2.64 -7.68 c1.8 -1.92 4.56 -2.64 7.12 -2.64 c0.6 0 2.92 0 4.64 1.36 c0.36 0.28 0.56 0.48 1.08 1.16 l-0.04 -1.96 l7.12 0 l0 19.56 z M81.88000000000001 28.92 c0 -1.48 -0.16 -3.4 -1.72 -4.16 c-0.24 -0.12 -0.76 -0.36 -1.48 -0.32 c-0.52 0 -1.04 0.12 -1.48 0.32 c-1.16 0.56 -1.96 1.88 -1.96 4.48 c0 1.76 0.4 2.84 0.92 3.4 c0.28 0.32 0.6 0.52 1 0.68 c0.16 0.08 0.72 0.24 1.32 0.24 c0.32 0 0.88 0 1.56 -0.32 c1.64 -0.72 1.84 -2.76 1.84 -4.32 z M112.60000000000001 33.08 c0 1.2 -0.24 2.28 -0.84 3.36 c-2.36 4.28 -7.88 4.36 -9 4.36 c-3.08 0 -6.24 -0.88 -8.84 -2.52 c-0.8 -0.48 -1.52 -1.08 -2.28 -1.64 l4.64 -4.2 c0.4 0.36 0.76 0.68 1.16 1 c0.68 0.48 2.72 1.76 5.24 1.76 c0.2 0 0.84 0 1.36 -0.24 c0.6 -0.28 0.8 -0.8 0.8 -1.08 c0 -0.24 -0.12 -0.44 -0.16 -0.48 c-0.52 -0.8 -1.44 -0.72 -3 -1 c-0.48 -0.08 -2.44 -0.48 -4.08 -1.04 c-1.92 -0.64 -3.4 -1.4 -4.32 -3.36 c-0.36 -0.8 -0.56 -1.6 -0.56 -2.48 c0 -1.8 0.84 -3.16 1.2 -3.68 c1.2 -1.68 3.56 -3.4 8.2 -3.4 c2.48 0 5.64 0.52 7.88 1.68 c0.76 0.4 1.32 0.8 2 1.32 l-4.44 4.04 c-0.6 -0.4 -2.8 -2 -5.32 -2 c-0.16 0 -0.72 0 -1.16 0.2 c-0.48 0.24 -0.6 0.68 -0.6 0.88 c0 0.52 0.44 0.76 0.56 0.8 c0.36 0.2 1.16 0.36 2.16 0.6 c3.04 0.76 4.8 1.04 6.12 1.72 c1.04 0.52 3.28 2.12 3.28 5.4 z M157.36 40 l-9.6 0 l-1.24 -3.96 l-9.84 0 l-1.24 3.96 l-9.6 0 l10.8 -28.24 l10.16 0 z M144.68 29.759999999999998 l-3 -9.96 l-3.08 9.96 l6.08 0 z M185.88 20.96 c0 0.56 -0.04 2.36 -0.68 4.04 c-0.36 0.96 -1.8 3.92 -4.92 5.08 c-1.68 0.64 -3.36 0.72 -5.12 0.72 l-6.88 0 l0 9.2 l-8.96 0 l0 -28.24 l16.12 0 c2.76 0 5.32 0.2 7.52 2.12 c2.84 2.44 2.92 5.84 2.92 7.08 z M177 21.24 c0 -0.32 0 -1.16 -0.44 -1.96 c-0.88 -1.6 -2.76 -1.6 -3.24 -1.6 l-5.04 0 l0 7.2 l5.08 0 c0.12 0 1 -0.04 1.6 -0.24 c0.8 -0.28 2.04 -1.16 2.04 -3.4 z M196.6 40 l-8.96 0 l0 -28.24 l8.96 0 l0 28.24 z" fill="#111111"></path></g></svg>